<svg width="46" height="45" viewBox="0 0 46 45" fill="none" xmlns="http://www.w3.org/2000/svg">
<path fill-rule="evenodd" clip-rule="evenodd" d="M17.2407 1.87757C19.3918 0.707478 21.9893 0.707477 24.1404 1.87757L36.6111 8.66098C38.9347 9.92488 40.3811 12.3582 40.3811 15.0033V27.8413C40.3811 30.4864 38.9347 32.9197 36.6111 34.1836L24.1404 40.967C21.9893 42.1371 19.3918 42.1371 17.2407 40.967L4.76999 34.1836C2.44642 32.9197 1 30.4864 1 27.8413L1 15.0033C1 12.3582 2.44641 9.92488 4.76998 8.66098L17.2407 1.87757Z" fill="#2E2C34"/>
<circle cx="20.752" cy="21" r="6" fill="#FBFAFC"/>
<circle cx="36.5" cy="35.5" r="8.5" fill="#FC3400" stroke="white" stroke-width="2"/>
<path d="M33.5785 39.994L33.5845 38.878L37.3465 35.506C37.6505 35.238 37.8565 34.982 37.9645 34.738C38.0765 34.494 38.1325 34.25 38.1325 34.006C38.1325 33.698 38.0645 33.422 37.9285 33.178C37.7925 32.93 37.6045 32.734 37.3645 32.59C37.1245 32.446 36.8485 32.374 36.5365 32.374C36.2165 32.374 35.9305 32.45 35.6785 32.602C35.4305 32.75 35.2365 32.948 35.0965 33.196C34.9565 33.444 34.8885 33.712 34.8925 34H33.6085C33.6085 33.44 33.7345 32.95 33.9865 32.53C34.2425 32.106 34.5925 31.776 35.0365 31.54C35.4805 31.3 35.9885 31.18 36.5605 31.18C37.1045 31.18 37.5925 31.304 38.0245 31.552C38.4565 31.796 38.7965 32.132 39.0445 32.56C39.2965 32.988 39.4225 33.476 39.4225 34.024C39.4225 34.42 39.3705 34.756 39.2665 35.032C39.1625 35.308 39.0065 35.564 38.7985 35.8C38.5905 36.036 38.3305 36.292 38.0185 36.568L35.1145 39.16L34.9765 38.8H39.4225V39.994H33.5785Z" fill="white"/>
<circle cx="5" cy="5" r="4" fill="#14B13B" stroke="white" stroke-width="2"/>
</svg>
